<svg width="16" height="16" viewBox="0 0 16 16" fill="none" xmlns="http://www.w3.org/2000/svg">
<g clip-path="url(#clip0_410_2332)">
<path d="M1.77778 2.22226C1.30628 2.22226 0.854097 2.40956 0.520699 2.74296C0.187301 3.07636 0 3.52854 0 4.00004L0 12C0 12.4715 0.187301 12.9237 0.520699 13.2571C0.854097 13.5905 1.30628 13.7778 1.77778 13.7778H5.33333V2.22226H1.77778Z" fill="#009A49"/>
<path d="M5.33301 2.22226H10.6663V13.7778H5.33301V2.22226Z" fill="#EEEEEE"/>
<path d="M14.2225 2.22226H10.667V13.7778H14.2225C14.694 13.7778 15.1462 13.5905 15.4796 13.2571C15.813 12.9237 16.0003 12.4715 16.0003 12V4.00004C16.0003 3.52854 15.813 3.07636 15.4796 2.74296C15.1462 2.40956 14.694 2.22226 14.2225 2.22226Z" fill="#009A49"/>
</g>
<defs>
<clipPath id="clip0_410_2332">
<rect width="16" height="16" fill="white"/>
</clipPath>
</defs>
</svg>
